<?xml version="1.0" encoding="UTF-8" standalone="no"?>
<!-- Created with Inkscape (http://www.inkscape.org/) -->

<svg
   width="1000"
   height="1000"
   viewBox="0 0 264.58333 264.58333"
   version="1.1"
   id="svg1"
   xml:space="preserve"
   inkscape:version="1.4.3 (0d15f75042, 2025-12-25)"
   sodipodi:docname="icon.svg"
   inkscape:export-filename="icon.png"
   inkscape:export-xdpi="96"
   inkscape:export-ydpi="96"
   xmlns:inkscape="http://www.inkscape.org/namespaces/inkscape"
   xmlns:sodipodi="http://sodipodi.sourceforge.net/DTD/sodipodi-0.dtd"
   xmlns:xlink="http://www.w3.org/1999/xlink"
   xmlns="http://www.w3.org/2000/svg"
   xmlns:svg="http://www.w3.org/2000/svg"><sodipodi:namedview
     id="namedview1"
     pagecolor="#ffffff"
     bordercolor="#000000"
     borderopacity="0.25"
     inkscape:showpageshadow="2"
     inkscape:pageopacity="0.0"
     inkscape:pagecheckerboard="0"
     inkscape:deskcolor="#d1d1d1"
     inkscape:document-units="mm"
     inkscape:zoom="0.64548673"
     inkscape:cx="533.70578"
     inkscape:cy="493.4261"
     inkscape:window-width="1588"
     inkscape:window-height="962"
     inkscape:window-x="0"
     inkscape:window-y="0"
     inkscape:window-maximized="1"
     inkscape:current-layer="layer1" /><defs
     id="defs1">
<style>
    path { fill: #0f172a; }
    @media (prefers-color-scheme: dark) {
      path { fill: #f1f5f9; }
    }
  </style>
  </defs><g
     inkscape:label="Layer 1"
     inkscape:groupmode="layer"
     id="layer1"><path
       
       d="m 12.654244,230.23389 c -2.429714,-0.51954 -4.6967726,-2.01921 -5.1032183,-3.3758 -0.2016932,-0.67319 0.019782,-1.40747 0.6221845,-2.06279 0.2656051,-0.28894 1.5275873,-1.23286 2.8044048,-2.0976 2.746028,-1.85979 3.715463,-2.63443 5.329915,-4.25898 2.882314,-2.90032 4.97251,-6.36072 7.430756,-12.30189 1.452255,-3.50985 2.558977,-6.93148 6.183207,-19.11649 1.616902,-5.43618 4.057237,-8.20481 9.837576,-11.16099 2.145732,-1.09738 9.083937,-4.08843 14.875677,-6.41289 9.362328,-3.75749 12.956682,-5.59927 14.922479,-7.64645 1.79532,-1.86964 2.028347,-2.97512 2.684032,-12.73305 0.856573,-12.74757 2.862599,-22.70293 6.665929,-33.08119 1.390423,-3.79409 2.295129,-5.8891 4.232795,-9.80183 3.325547,-6.715269 6.145007,-11.203839 10.045557,-15.992462 6.532603,-8.019945 14.934742,-14.342463 25.547742,-19.224402 7.46006,-3.431595 14.22344,-5.632982 23.34384,-7.598094 4.02391,-0.867006 4.09906,-0.884618 9.71495,-2.276881 2.82505,-0.700373 5.36604,-1.273405 5.64664,-1.273405 1.03703,0 2.13294,0.695869 2.62492,1.666744 0.4777,0.942694 0.63418,2.135043 0.54267,4.135053 -0.1922,4.200637 -1.18653,8.539296 -2.60709,11.375694 -0.71305,1.423724 -1.00138,1.877043 -1.9658,3.09067 -2.54179,3.198575 -5.80521,5.164119 -10.04717,6.051367 -2.51894,0.52686 -4.70006,0.474458 -11.32498,-0.27209 -4.86087,-0.547761 -8.77713,-0.477114 -11.90629,0.214782 -7.51205,1.661007 -13.89281,6.164123 -17.69116,12.485255 -1.5529,2.584299 -2.99112,5.905269 -3.41216,7.878989 -0.47519,2.22752 0.75219,4.64627 2.86578,5.64752 0.79569,0.37694 0.9738,0.41079 2.15702,0.40996 1.17248,-8.2e-4 1.36005,-0.0359 2.06354,-0.38646 0.94316,-0.46992 1.9909,-1.47832 2.4228,-2.33182 0.17647,-0.34874 0.50488,-1.15641 0.72981,-1.79482 1.69816,-4.81987 4.57406,-8.164119 8.71277,-10.131689 3.85502,-1.8327 7.07207,-2.15674 13.28406,-1.33807 4.42779,0.58353 8.92278,0.75841 11.54053,0.44899 7.84905,-0.92777 14.76619,-5.044195 18.79994,-11.187956 3.25432,-4.956628 4.67245,-10.441676 4.99509,-19.320088 0.0438,-1.205883 0.17001,-2.743868 0.28042,-3.417744 0.50693,-3.094145 1.70876,-5.522761 3.67686,-7.430114 1.6852,-1.633188 3.00361,-2.347377 7.45932,-4.040748 3.27401,-1.244273 5.56475,-2.329659 6.66947,-3.160094 1.0124,-0.761034 1.74513,-1.695027 3.29405,-4.198879 1.51254,-2.445029 2.3223,-3.529532 3.52202,-4.717026 3.54113,-3.505019 8.00553,-5.343845 12.97016,-5.342231 2.77418,9.02e-4 5.01631,0.513844 7.34027,1.679263 2.93078,1.46973 4.99919,3.233478 7.02942,5.994021 1.95585,2.659402 2.9508,3.525789 4.57257,3.981716 0.39014,0.109679 1.78303,0.379608 3.09531,0.59984 5.37818,0.902586 9.03598,1.770803 12.77982,3.033419 4.44986,1.500723 7.537,3.226961 9.42451,5.269915 0.65109,0.704711 1.49927,2.175454 1.86651,3.236545 0.31753,0.917455 0.35757,1.217536 0.36138,2.708401 0.004,1.436511 -0.0458,1.856599 -0.34531,2.933275 -0.77902,2.800208 -2.64713,6.020233 -5.40516,9.316754 -1.09416,1.307793 -3.99911,4.294396 -5.53031,5.685758 -0.46309,0.420792 -1.1015,1.000356 -1.41869,1.287921 -0.8495,0.770147 -4.56327,3.843298 -5.6066,4.639466 -1.3353,1.01897 -4.47347,3.468636 -5.87069,4.582671 -0.67251,0.536207 -1.78292,1.413158 -2.46758,1.94878 -9.20134,7.198385 -15.33306,13.678284 -18.03045,19.054274 -2.33206,4.64787 -2.67623,9.5089 -0.93222,13.16675 0.59599,1.25002 1.9369,2.62236 3.12943,3.20279 1.28385,0.62486 2.15314,0.79547 4.04681,0.79421 2.09906,-0.001 4.24826,-0.41356 8.06586,-1.5468 5.09153,-1.51141 8.8626,-2.39734 12.44575,-2.92385 1.13739,-0.16713 2.3511,-0.22722 4.57849,-0.22667 2.79868,6.8e-4 3.15531,0.0273 4.65607,0.3474 3.88347,0.82833 6.82425,2.29792 9.0769,4.53597 1.82919,1.81733 3.00627,4.17572 3.13387,6.27895 0.0992,1.6351 -0.33273,2.51843 -1.49063,3.04853 -1.06133,0.4859 -1.60633,0.38039 -4.36049,-0.84418 -4.12565,-1.83437 -6.12899,-2.36674 -8.95218,-2.37898 -2.06925,-0.009 -3.35308,0.15989 -5.61026,0.73792 -3.20483,0.8207 -5.79321,1.79017 -11.54294,4.3234 -7.49921,3.304 -9.86267,4.20274 -13.02612,4.95333 -1.96516,0.46628 -3.32788,0.62871 -5.22335,0.62261 -1.37085,-0.004 -1.90744,-0.0656 -2.94225,-0.33539 -3.92417,-1.02319 -6.2938,-2.74428 -13.43712,-9.75957 -1.84782,-1.81469 -3.40718,-3.24136 -3.65269,-3.34187 -0.5639,-0.23085 -0.87279,-0.0784 -2.47346,1.22094 -9.56511,7.76431 -18.49408,12.98025 -28.22818,16.48976 -11.27467,4.06494 -23.45739,6.14288 -35.13387,5.99258 -2.65315,-0.0341 -3.47876,-0.0833 -3.55807,-0.21174 -0.0599,-0.097 0.0739,-0.75181 0.31867,-1.55902 0.62874,-2.07384 1.24027,-5.07691 2.1172,-10.39703 1.24211,-7.5355 2.0231,-10.60774 3.4616,-13.61721 2.5247,-5.28187 6.80462,-8.5177 12.53299,-9.47556 1.91547,-0.32029 5.38607,-0.20085 9.99168,0.34386 3.12528,0.36963 4.0277,0.42749 6.70651,0.43003 3.32912,0.003 4.7194,-0.14582 7.19676,-0.77111 4.98897,-1.25923 10.29836,-4.45407 13.66404,-8.22213 2.68079,-3.00128 4.84234,-6.6712 6.01756,-10.21669 0.59864,-1.806019 0.73718,-2.797189 0.54081,-3.869149 -0.32257,-1.76083 -1.33647,-3.080699 -2.95591,-3.847922 -0.77909,-0.3691 -0.97865,-0.408133 -2.08671,-0.408133 -1.1059,0 -1.30842,0.03942 -2.07945,0.40474 -1.58675,0.751812 -2.32522,1.729345 -3.20172,4.238235 -0.52415,1.50029 -1.6346,3.811829 -2.33207,4.854449 -0.77433,1.15754 -2.95428,3.26767 -4.26883,4.13212 -2.17779,1.43211 -3.97125,2.15617 -6.72136,2.71356 -2.15042,0.43585 -6.38054,0.40725 -10.41515,-0.0704 -4.41876,-0.52314 -7.4864,-0.68383 -9.59672,-0.50271 -3.86026,0.33132 -7.81302,1.61882 -11.1703,3.63842 -1.56583,0.94194 -1.92949,1.21035 -3.66347,2.70386 -3.66766,3.15905 -6.47104,7.76387 -7.86346,12.91648 -0.64641,2.39202 -1.0533,5.01978 -1.62524,10.49601 -0.83203,7.96662 -2.35253,14.72592 -4.5989,20.44414 -1.08915,2.7725 -3.2381,7.12086 -4.53126,9.16892 -5.889719,9.32797 -12.298854,14.17654 -22.145728,16.75344 -3.986551,1.04328 -7.159755,1.62366 -16.228472,2.96823 -7.670057,1.1372 -9.846851,1.50954 -12.145252,2.07744 -4.852855,1.19908 -7.095803,2.4533 -8.508641,4.75788 -0.687265,1.12105 -1.274668,2.71434 -2.709962,7.35057 -1.982845,6.40491 -2.734364,8.43701 -4.210788,11.38596 -2.505193,5.00375 -5.29033,8.7443 -8.688275,11.66867 -3.286563,2.82852 -7.435415,4.9252 -10.888573,5.50269 -1.497528,0.25045 -3.516956,0.24584 -4.716975,-0.0108 z M 208.6473,60.281465 c 1.89834,-0.365248 3.42886,-1.152443 4.75964,-2.448039 1.90316,-1.852833 2.76087,-3.889076 2.74928,-6.526847 -0.0114,-2.602067 -0.80728,-4.495478 -2.69041,-6.400776 -1.00259,-1.014403 -1.33337,-1.258975 -2.38895,-1.766357 -2.70332,-1.299391 -5.32422,-1.298663 -7.93175,0.0022 -2.44862,1.221589 -4.34072,3.671353 -4.91519,6.363867 -0.23875,1.118992 -0.1752,3.104806 0.13604,4.251521 1.20531,4.440687 5.83655,7.37962 10.28134,6.524428 z"
       id="path1" /></g></svg>
